<?xml version="1.0" encoding="utf-8"?>
<svg width="126" height="16" viewBox="0 0 126 16" fill="none" xmlns="http://www.w3.org/2000/svg">
<path d="M25.3018 0.447937L27.9052 0.447937L32.332 8.45577L36.7588 0.447937L39.3058 0.447937V13.6064H37.1817V3.52133L33.3001 10.5047H31.3075L27.4258 3.52133L27.4258 13.6064H25.3018L25.3018 0.447937Z" fill="white" style="fill:white;fill-opacity:1;"/>
<path d="M46.1599 13.835C45.1761 13.835 44.3114 13.6172 43.5659 13.1818C42.8271 12.7534 42.2231 12.1267 41.8223 11.3725C41.4056 10.6017 41.1973 9.71825 41.1973 8.72201C41.1973 7.71319 41.4009 6.82028 41.8082 6.04328C42.2155 5.26645 42.781 4.65868 43.5047 4.21999C44.2284 3.78138 45.0602 3.56205 46.0001 3.56201C46.9336 3.56201 47.7372 3.78287 48.4109 4.22458C49.0843 4.66641 49.6028 5.28519 49.9664 6.08092C50.3297 6.87669 50.5115 7.81029 50.5116 8.88171V9.46455L43.3027 9.46455C43.4343 10.2666 43.7585 10.8979 44.2755 11.3584C44.7923 11.8189 45.4455 12.0492 46.235 12.0492C46.8679 12.0492 47.413 11.9552 47.8705 11.7672C48.3278 11.5793 48.757 11.2942 49.1581 10.9119L50.2859 12.2936C49.1643 13.3213 47.789 13.8351 46.1599 13.835ZM47.7107 6.02916C47.2657 5.57494 46.683 5.34781 45.9625 5.34778C45.2606 5.34778 44.6732 5.57961 44.2002 6.04327C43.7271 6.50713 43.4279 7.13061 43.3027 7.91372L48.472 7.91372C48.4093 7.11164 48.1555 6.48345 47.7107 6.02916Z" fill="white" style="fill:white;fill-opacity:1;"/>
<path d="M53.081 5.5388H51.126V3.79995L53.081 3.79995V0.923889L55.1299 0.923889V3.79995L58.0999 3.79995V5.5388H55.1299V9.94685C55.1299 10.6799 55.2552 11.203 55.5058 11.5164C55.7564 11.8298 56.1856 11.9865 56.7935 11.9864C57.0226 11.9885 57.2517 11.9775 57.4796 11.9535C57.6675 11.9316 57.8743 11.9018 58.0999 11.8642V13.5841C57.8425 13.6586 57.5803 13.7151 57.3151 13.7534C57.0117 13.798 56.7054 13.82 56.3987 13.8191C54.1867 13.8191 53.0808 12.6098 53.081 10.1912L53.081 5.5388Z" fill="white" style="fill:white;fill-opacity:1;"/>
<path d="M68.7845 13.6H66.7732V12.2277C66.4264 12.7326 65.9576 13.1416 65.4104 13.4168C64.8589 13.6955 64.2323 13.8348 63.5306 13.835C62.666 13.835 61.9 13.6141 61.2327 13.1724C60.5653 12.7306 60.0405 12.1228 59.6584 11.349C59.2761 10.5751 59.085 9.69006 59.085 8.69379C59.085 7.69138 59.2792 6.80475 59.6678 6.03388C60.0561 5.26324 60.5934 4.65861 61.2796 4.21999C61.9657 3.78138 62.7536 3.56205 63.6434 3.56201C64.3139 3.56201 64.9154 3.69204 65.448 3.95209C65.9734 4.20628 66.4284 4.5855 66.7732 5.05649V3.79699L68.7845 3.79699V13.6ZM66.7356 7.22754C66.5162 6.66995 66.17 6.22977 65.697 5.90699C65.2239 5.58437 64.6772 5.42302 64.057 5.42294C63.1796 5.42294 62.481 5.71746 61.961 6.30648C61.4409 6.89551 61.1809 7.69128 61.181 8.69379C61.181 9.70273 61.4316 10.5016 61.9329 11.0905C62.434 11.6795 63.1139 11.974 63.9724 11.974C64.6052 11.974 65.1691 11.8111 65.6641 11.4853C66.1505 11.17 66.5254 10.7096 66.7356 10.1695L66.7356 7.22754Z" fill="white" style="fill:white;fill-opacity:1;"/>
<path d="M85.7094 3.50429C86.2764 4.52871 86.56 5.70198 86.56 7.0241C86.56 8.2586 86.2937 9.37079 85.7611 10.3607C85.2285 11.3508 84.5173 12.1403 83.6275 12.7292C84.4986 13.8257 85.2286 14.9159 85.8175 16H83.3926C82.9443 15.152 82.4388 14.3355 81.8795 13.5563C81.245 13.7445 80.5864 13.8395 79.9245 13.8383C78.9594 13.8383 78.0728 13.6707 77.2647 13.3354C76.473 13.0116 75.7564 12.5285 75.1592 11.9162C74.5579 11.2959 74.0881 10.5607 73.7778 9.75444C73.4517 8.92425 73.2888 8.01414 73.2891 7.02409C73.2891 6.03408 73.452 5.12396 73.7778 4.29373C74.0881 3.48753 74.5579 2.75225 75.1592 2.13197C75.7564 1.51971 76.473 1.03665 77.2647 0.712763C78.0728 0.377636 78.9594 0.210015 79.9245 0.2099C81.215 0.2099 82.36 0.502845 83.3595 1.08873C84.3488 1.66413 85.1615 2.49955 85.7094 3.50429V3.50429ZM76.099 9.5289C76.4751 10.2526 76.9937 10.8181 77.6547 11.2254C78.3156 11.6328 79.0722 11.8365 79.9245 11.8363C80.7827 11.8363 81.5408 11.6327 82.1989 11.2254C82.857 10.8181 83.3739 10.2526 83.7496 9.5289C84.1257 8.80517 84.3137 7.97024 84.3136 7.0241C84.3136 6.07804 84.1256 5.24311 83.7496 4.51931C83.3738 3.7956 82.8569 3.23009 82.1989 2.8228C81.5411 2.41562 80.7829 2.21197 79.9245 2.21186C79.0723 2.21186 78.3157 2.4155 77.6547 2.8228C76.9934 3.2302 76.4749 3.79571 76.099 4.51931C75.7232 5.24303 75.5352 6.07796 75.5352 7.0241C75.5352 7.97028 75.7232 8.80521 76.099 9.52889V9.5289Z" fill="white" style="fill:white;fill-opacity:1;"/>
<path d="M97.0523 13.6072H95.0314V12.1974C94.2795 13.294 93.2393 13.8423 91.911 13.8422C90.7582 13.8422 89.8732 13.4788 89.2559 12.7519C88.6387 12.0251 88.3301 10.9849 88.3301 9.63146V3.8042L90.3791 3.8042V9.38709C90.3791 10.2958 90.5388 10.9678 90.8583 11.4031C91.1781 11.8388 91.6794 12.0565 92.3621 12.0564C92.9512 12.0564 93.4744 11.9013 93.9318 11.5912C94.3892 11.2809 94.7463 10.847 95.0032 10.2894V3.8042L97.0523 3.8042V13.6072Z" fill="white" style="fill:white;fill-opacity:1;"/>
<path d="M103.801 13.835C102.818 13.835 101.953 13.6172 101.208 13.1818C100.469 12.7534 99.8647 12.1267 99.4639 11.3725C99.0472 10.6017 98.8389 9.71825 98.8389 8.72201C98.8389 7.71319 99.0425 6.82028 99.4499 6.04328C99.857 5.26645 100.422 4.65868 101.146 4.21999C101.87 3.78138 102.702 3.56205 103.642 3.56201C104.575 3.56201 105.379 3.78287 106.052 4.22458C106.726 4.66641 107.245 5.28519 107.608 6.08092C107.971 6.87669 108.153 7.81029 108.153 8.88171V9.46455L100.944 9.46455C101.076 10.2666 101.4 10.8979 101.917 11.3584C102.434 11.8189 103.087 12.0492 103.877 12.0492C104.509 12.0492 105.055 11.9552 105.512 11.7672C105.969 11.5793 106.398 11.2942 106.8 10.9119L107.927 12.2936C106.806 13.3213 105.431 13.8351 103.801 13.835ZM105.352 6.02917C104.907 5.57495 104.325 5.34781 103.604 5.34778C102.902 5.34778 102.315 5.57961 101.842 6.04327C101.369 6.50713 101.069 7.13061 100.944 7.91372L106.114 7.91372C106.051 7.11164 105.797 6.48345 105.352 6.02916V6.02917Z" fill="white" style="fill:white;fill-opacity:1;"/>
<path d="M116.554 13.0032C115.827 13.5576 114.853 13.8349 113.631 13.835C112.597 13.835 111.697 13.6533 110.929 13.2899C110.162 12.9265 109.59 12.4378 109.214 11.8236L110.595 10.6206C110.884 11.0592 111.282 11.4069 111.789 11.6638C112.297 11.9208 112.901 12.0493 113.603 12.0492C114.913 12.0492 115.568 11.667 115.568 10.9026C115.568 10.5767 115.459 10.3151 115.243 10.1177C115.027 9.92036 114.671 9.78097 114.176 9.69951L112.287 9.37046C111.397 9.21397 110.718 8.89754 110.248 8.42118C109.778 7.94518 109.543 7.33114 109.543 6.57908C109.543 5.67064 109.905 4.94065 110.628 4.3891C111.352 3.83782 112.331 3.56213 113.565 3.56201C114.462 3.56201 115.265 3.74527 115.976 4.1118C116.687 4.47836 117.215 4.95304 117.56 5.53583L116.141 6.6073C115.903 6.21882 115.549 5.91176 115.079 5.68613C114.609 5.46057 114.064 5.34779 113.443 5.34779C112.86 5.34779 112.411 5.44806 112.095 5.64861C111.778 5.84916 111.62 6.12799 111.62 6.48511C111.62 6.79213 111.717 7.03023 111.911 7.19942C112.106 7.36853 112.431 7.49382 112.889 7.57529L115.013 7.95126C115.865 8.10167 116.517 8.4228 116.968 8.91465C117.419 9.40661 117.644 10.0254 117.645 10.771C117.645 11.7046 117.281 12.4487 116.554 13.0032Z" fill="white" style="fill:white;fill-opacity:1;"/>
<path d="M120.386 5.53904H118.431V3.80019L120.386 3.80019V0.924133L122.435 0.924133V3.80019L125.405 3.80019V5.53904H122.435V9.94709C122.435 10.6801 122.56 11.2033 122.811 11.5166C123.061 11.83 123.49 11.9867 124.098 11.9867C124.327 11.9887 124.557 11.9777 124.784 11.9537C124.972 11.9318 125.179 11.9021 125.405 11.8645V13.5844C125.147 13.6588 124.885 13.7153 124.62 13.7536C124.317 13.7983 124.01 13.8202 123.704 13.8194C121.492 13.8194 120.386 12.6101 120.386 10.1915L120.386 5.53904Z" fill="white" style="fill:white;fill-opacity:1;"/>
<path d="M6.0391 0C6.03234 0 6.02561 2.45365e-05 6.01884 5.91443e-05L5.99121 2.26276C5.99754 2.26269 6.00385 2.26264 6.01018 2.26264C7.51274 2.26264 8.6782 3.43691 11.2114 7.66623L11.3658 7.92371L11.3759 7.94056L12.7939 5.83166L12.7841 5.81537C12.4504 5.27737 12.1298 4.78238 11.8223 4.3304C11.4657 3.80672 11.1247 3.33889 10.7938 2.92119C9.11801 0.806309 7.71621 0 6.0391 0Z" fill="white" style="fill:white;fill-opacity:1;"/>
<path d="M6.01921 5.29411e-05C4.33395 0.00864608 2.84407 1.08882 1.76824 2.74169C1.76509 2.74654 1.76194 2.75138 1.75879 2.75623L3.73359 3.82162C3.7368 3.81681 3.74003 3.81198 3.74324 3.80719C4.37146 2.86966 5.15325 2.27166 5.99158 2.26276C5.9979 2.26269 6.00422 2.26264 6.01055 2.26264L6.03945 1.18976e-06C6.03267 -5.73182e-06 6.02596 1.83332e-05 6.01921 5.29411e-05Z" fill="white" style="fill:white;fill-opacity:1;"/>
<path d="M1.76528 2.74475C1.76213 2.7496 1.75898 2.75444 1.75583 2.75929C1.04889 3.85007 0.521892 5.18859 0.237085 6.6326C0.235851 6.63885 0.234623 6.64511 0.233398 6.65137L2.45201 7.17024C2.45317 7.16398 2.45434 7.15769 2.4555 7.15143C2.69265 5.88239 3.14413 4.70538 3.73062 3.82468C3.73383 3.81987 3.73705 3.81504 3.74027 3.81025L1.76528 2.74475Z" fill="white" style="fill:white;fill-opacity:1;"/>
<path d="M2.45808 7.14767L0.239657 6.62885C0.238424 6.63509 0.237195 6.64135 0.235971 6.64761C0.0806687 7.44176 0.00165862 8.2487 0 9.05763C0 9.06417 0 9.07071 0 9.07724L2.27527 9.27901C2.27509 9.27243 2.2749 9.26595 2.27475 9.25937C2.27363 9.21245 2.27306 9.1649 2.27305 9.11671C2.27418 8.46254 2.33495 7.80981 2.45461 7.16649C2.45574 7.16022 2.45691 7.15393 2.45808 7.14767Z" fill="white" style="fill:white;fill-opacity:1;"/>
<path d="M2.34455 9.98066C2.30374 9.74817 2.28061 9.51297 2.27535 9.27704C2.27517 9.27047 2.27498 9.26399 2.27483 9.2574L9.81933e-05 9.05566C9.81933e-05 9.0622 9.81933e-05 9.06874 9.81933e-05 9.07528V9.07655C-0.00230563 9.54945 0.0394307 10.0216 0.124774 10.4868C0.125964 10.4931 0.127134 10.4993 0.128342 10.5056L2.34802 9.99949C2.34682 9.99325 2.34569 9.98695 2.34455 9.98066Z" fill="white" style="fill:white;fill-opacity:1;"/>
<path d="M2.86318 11.1524C2.61559 10.8845 2.44036 10.4981 2.34824 10.0039C2.34708 9.99769 2.34595 9.99139 2.34481 9.98511L0.125 10.4913C0.126191 10.4976 0.12736 10.5038 0.128568 10.51C0.29635 11.3832 0.625412 12.1109 1.09662 12.6614C1.10081 12.6663 1.10502 12.6712 1.10924 12.6761L2.8764 11.1665C2.87199 11.1618 2.86756 11.1571 2.86318 11.1524Z" fill="white" style="fill:white;fill-opacity:1;"/>
<path d="M9.43861 4.89221C8.10096 6.92591 7.29063 8.20147 7.29063 8.20147C5.50875 10.9701 4.8923 11.5906 3.90024 11.5906C3.48628 11.5906 3.14044 11.4445 2.8755 11.1653C2.87108 11.1606 2.86665 11.1559 2.86227 11.1512L1.0957 12.6602C1.09989 12.6651 1.1041 12.67 1.10832 12.6749C1.75897 13.4266 2.67738 13.8437 3.81355 13.8437C5.5325 13.8437 6.76878 13.0405 8.96654 9.23255C8.96654 9.23255 9.88272 7.62892 10.513 6.52427C10.1226 5.89948 9.76729 5.35858 9.43861 4.89221Z" fill="white" style="fill:white;fill-opacity:1;"/>
<path d="M11.822 1.68073C11.8175 1.68547 11.8129 1.69032 11.8084 1.69508C11.4459 2.08348 11.1066 2.49243 10.792 2.91985C11.123 3.33754 11.4646 3.80629 11.8212 4.32998C12.2415 3.687 12.6338 3.16625 13.0183 2.76711C13.0228 2.76238 13.0273 2.75777 13.0319 2.75308L11.822 1.68073Z" fill="white" style="fill:white;fill-opacity:1;"/>
<path d="M18.3164 1.48228C17.3835 0.548126 16.2712 0 15.0821 0C13.8282 0 12.7735 0.681083 11.8222 1.68164C11.8177 1.68638 11.8131 1.69123 11.8086 1.69599L13.0185 2.76803C13.0231 2.7633 13.0276 2.75869 13.0321 2.754C13.6588 2.10787 14.2653 1.78529 14.9376 1.78529H14.9376C15.6612 1.78529 16.3387 2.12293 16.9254 2.71485C16.93 2.71949 16.9345 2.72409 16.9391 2.72876L18.3303 1.49619C18.3256 1.49153 18.321 1.48692 18.3164 1.48228Z" fill="white" style="fill:white;fill-opacity:1;"/>
<path d="M21.0127 8.75822C20.9604 5.75882 19.9015 3.07739 18.3297 1.49389C18.3251 1.48923 18.3204 1.48462 18.3158 1.47998L16.9248 2.71256C16.9294 2.7172 16.934 2.7218 16.9386 2.72647C18.121 3.9304 18.932 6.16972 19.0058 8.75759C19.006 8.7641 19.0062 8.77061 19.0064 8.77713L21.013 8.77777C21.0129 8.77125 21.0128 8.76473 21.0127 8.75822Z" fill="white" style="fill:white;fill-opacity:1;"/>
<path d="M21.0176 8.77787C21.0175 8.77136 21.0174 8.76485 21.0173 8.75833L19.0104 8.75769C19.0106 8.7642 19.0108 8.77071 19.011 8.77723C19.0143 8.89869 19.0159 9.02089 19.0159 9.14382C19.0159 9.8494 18.9096 10.4198 18.6933 10.8315C18.6901 10.8376 18.6868 10.8438 18.6836 10.8498L20.1799 12.3923C20.1836 12.3867 20.1872 12.3811 20.1909 12.3755C20.7341 11.5447 21.0193 10.3906 21.0193 8.99108C21.0193 8.91983 21.0187 8.84876 21.0176 8.77787Z" fill="white" style="fill:white;fill-opacity:1;"/>
<path d="M18.692 10.8296C18.6888 10.8357 18.6855 10.8418 18.6823 10.8479C18.4951 11.195 18.228 11.4265 17.8789 11.5277L18.561 13.6585C18.6513 13.6281 18.7393 13.5939 18.8248 13.5561C18.8504 13.5448 18.8757 13.5332 18.9009 13.5212C18.9153 13.5144 18.9298 13.5074 18.9441 13.5003C19.3991 13.2728 19.7907 12.938 20.0846 12.5254C20.1034 12.4996 20.1221 12.4735 20.1403 12.4469C20.1532 12.4282 20.1659 12.4094 20.1785 12.3903C20.1822 12.3847 20.1859 12.3792 20.1896 12.3735L18.692 10.8296Z" fill="white" style="fill:white;fill-opacity:1;"/>
<path d="M17.4426 11.5904C17.2269 11.5955 17.0126 11.5542 16.8146 11.4692L16.1162 13.6507C16.5088 13.7836 16.9275 13.8435 17.3945 13.8435C17.7967 13.8473 18.1966 13.7841 18.5777 13.6567L17.8958 11.5266C17.7488 11.5703 17.5961 11.5918 17.4426 11.5904V11.5904Z" fill="white" style="fill:white;fill-opacity:1;"/>
<path d="M16.0448 10.8444C16.0405 10.8395 16.0362 10.8346 16.0319 10.8296L14.4248 12.4862C14.4293 12.491 14.4338 12.4958 14.4383 12.5005C14.9967 13.0903 15.5299 13.4563 16.1346 13.6571L16.8325 11.4772C16.5777 11.3687 16.3312 11.172 16.0448 10.8444Z" fill="white" style="fill:white;fill-opacity:1;"/>
<path d="M16.033 10.826C15.551 10.2703 14.9547 9.34522 14.0167 7.84924L12.7943 5.82854L12.7845 5.81226L11.3662 7.9206L11.3763 7.93745L12.2424 9.38163C13.082 10.7742 13.766 11.7816 14.426 12.4826C14.4305 12.4874 14.435 12.4922 14.4395 12.4969L16.046 10.8409C16.0417 10.8359 16.0374 10.831 16.033 10.826Z" fill="white" style="fill:white;fill-opacity:1;"/>
</svg>
